<svg xmlns="http://www.w3.org/2000/svg" viewBox="0 0 64 64">
  <rect width="64" height="64" rx="14" fill="#0f2a4a"/>
  <path d="M12 33 32 15l20 18" fill="none" stroke="#fff" stroke-width="5" stroke-linecap="round" stroke-linejoin="round"/>
  <path d="M19 31v17h26V31L32 20z" fill="#fff"/>
  <path d="M27 34h4v4h-4zm6 0h4v4h-4zm-6 6h4v4h-4zm6 0h4v4h-4z" fill="#0f2a4a"/>
  <path d="M47 9l1.8 4.7L53.5 15.5l-4.7 1.8L47 22l-1.8-4.7-4.7-1.8 4.7-1.8z" fill="#ffc93c"/>
  <path d="M8 50c3-9 10-12 17-10-1 8-8 12-17 10z" fill="#2fa35f"/>
</svg>
